<?xml version="1.0" standalone="no"?>
<!DOCTYPE svg PUBLIC "-//W3C//DTD SVG 1.1//EN" "http://www.w3.org/Graphics/SVG/1.1/DTD/svg11.dtd" >
<svg xmlns="http://www.w3.org/2000/svg">
<metadata>
Created by FontForge 20120731 at Wed May 17 16:46:00 2017
 By admin
</metadata>
<defs>
<font id="iconfont" horiz-adv-x="1024" >
  <font-face 
    font-family="iconfont"
    font-weight="500"
    font-stretch="normal"
    units-per-em="1024"
    panose-1="2 0 6 3 0 0 0 0 0 0"
    ascent="896"
    descent="-128"
    x-height="792"
    bbox="-57 -212 1363 896.226"
    underline-thickness="0"
    underline-position="0"
    unicode-range="U+0078-E856"
  />
<missing-glyph 
 />
    <glyph glyph-name=".notdef" 
 />
    <glyph glyph-name=".notdef" 
 />
    <glyph glyph-name=".null" horiz-adv-x="0" 
 />
    <glyph glyph-name="nonmarkingreturn" horiz-adv-x="341" 
 />
    <glyph glyph-name="x" unicode="x" horiz-adv-x="1001" 
d="M281 543q-27 -1 -53 -1h-83q-18 0 -36.5 -6t-32.5 -18.5t-23 -32t-9 -45.5v-76h912v41q0 16 -0.5 30t-0.5 18q0 13 -5 29t-17 29.5t-31.5 22.5t-49.5 9h-133v-97h-438v97zM955 310v-52q0 -23 0.5 -52t0.5 -58t-10.5 -47.5t-26 -30t-33 -16t-31.5 -4.5q-14 -1 -29.5 -0.5
t-29.5 0.5h-32l-45 128h-439l-44 -128h-29h-34q-20 0 -45 1q-25 0 -41 9.5t-25.5 23t-13.5 29.5t-4 30v167h911zM163 247q-12 0 -21 -8.5t-9 -21.5t9 -21.5t21 -8.5q13 0 22 8.5t9 21.5t-9 21.5t-22 8.5zM316 123q-8 -26 -14 -48q-5 -19 -10.5 -37t-7.5 -25t-3 -15t1 -14.5
t9.5 -10.5t21.5 -4h37h67h81h80h64h36q23 0 34 12t2 38q-5 13 -9.5 30.5t-9.5 34.5q-5 19 -11 39h-368zM336 498v228q0 11 2.5 23t10 21.5t20.5 15.5t34 6h188q31 0 51.5 -14.5t20.5 -52.5v-227h-327z" />
    <glyph glyph-name="weixin" unicode="&#xe600;" horiz-adv-x="1000" 
d="M572 398.5q0 11.5 10 21.5t21 10q17 0 28 -9.5t11 -22t-11 -21.5t-28 -9q-11 0 -21 9.5t-10 21zM743 398.5q0 11.5 10 21.5t21 10q17 0 28 -9.5t11 -22t-11 -21.5t-28 -9q-11 0 -21 9.5t-10 21zM425 328.5q0 -93.5 77 -159t187 -65.5q31 0 93 15l85 -46l-23 77
q108 82 108 179q0 92 -78.5 158.5t-184.5 66.5q-110 0 -187 -66t-77 -159.5zM386 787q-128 0 -219 -77t-91 -187q0 -123 124 -210l-31 -93l109 55q78 -16 108 -16q13 0 29 1q-9 33 -9 65q0 102 76.5 174t186.5 72q14 0 30 -2q-20 94 -109 156t-204 62zM285 577q-18 0 -32 11
t-14 28t14 28t32 11t28.5 -10.5t10.5 -28t-10.5 -28.5t-28.5 -11zM503 577q-19 0 -33 11t-14 28t14 28t33 11q17 0 27.5 -10.5t10.5 -28t-10.5 -28.5t-27.5 -11z" />
    <glyph glyph-name="touxiang" unicode="&#xe649;" 
d="M310 318q-3 0 -5 -1q2 1 5 1v0zM845 104q0 2 1 3q-1 0 -1 -3zM881 499v0v0v0zM845 499v0v0v0zM867 -37q-8 56 -33 107l-10 20v0q-24 40 -58 74v0l-16 14q-56 49 -126 71q13 7 24 16q13 10 25 21q64 65 64 155.5t-64 154.5q-63 63 -152 65h-2h-3q-89 -2 -152 -65
q-64 -64 -64 -154.5t64 -155.5q12 -11 25 -21q12 -9 24 -16q-70 -22 -126 -71q-8 -7 -15 -14q-34 -34 -58 -74q-6 -10 -11 -20q-25 -51 -32 -107q-2 -9 3.5 -16.5t14.5 -8.5h3.5h2.5q15 3 17 18q15 104 91 180q43 44 99 68.5t117 24.5v0q61 0 117 -24.5t99 -68.5
q75 -76 90 -180q2 -15 17 -18v0h3h3q9 1 14.5 8.5t4.5 16.5zM518 266h-1q-61 1 -110.5 38.5t-64.5 95.5v2q-5 20 -5 39.5t5 39.5v3q15 59 65 99.5t111 40.5h1q61 0 111 -40.5t65 -99.5q1 -2 1 -3q5 -20 5 -39.5t-5 -39.5q0 -1 -1 -2q-15 -58 -64 -95.5t-111 -38.5h-2z" />
    <glyph glyph-name="unie61d" unicode="&#xe60a;" 
d="M-57 853v0v0zM743 324q-16 4 -21 10.5t-2 11.5l3 6q2 1 3 3.5t4 9.5t5 14t3 17.5t-0.5 20t-6.5 20.5t-14 20q-16 15 -40.5 19.5t-49.5 0.5t-47 -10t-36 -11l-15 -7q-11 -3 -18 -4t-11 0.5t-6 3t-1.5 7.5t1 10.5t2.5 14t3 15.5q0 13 -1.5 24.5t-7 26t-16 23t-26.5 14
t-41.5 3.5t-57.5 -13q-38 -13 -78 -39t-69 -54.5t-53.5 -54.5t-37.5 -43l-12 -18q-36 -47 -54 -94.5t-17 -71.5v-23q7 -53 33 -95t62 -68t84.5 -44.5t93 -26.5t94.5 -11q81 -7 169 12.5t163.5 66.5t106.5 114q19 38 19.5 72.5t-12 56t-31.5 38t-36 24t-31 9.5v0zM407 -19
q-119 -5 -202.5 46.5t-83.5 131.5q0 78 83 135t203 62.5t203 -40t83 -123.5q0 -79 -84.5 -142.5t-201.5 -69.5v0zM375 287q-32 -3 -57.5 -15t-40 -26.5t-24.5 -32t-13.5 -34t-4.5 -30t-1 -21.5l1 -9v-4q0 -3 2 -13t6 -18.5t12.5 -18.5t21.5 -16q72 -36 135 -22t102 64
q15 18 20 46t-2 56t-24.5 51t-52.5 35.5t-80 7.5v0zM335 78q-7 -1 -13 -0.5t-11 2.5t-9.5 4t-8 6t-6.5 7.5t-4.5 9t-1.5 10.5q0 12 6.5 23.5t18 20t26.5 9.5q10 1 19.5 -0.5t16 -5.5t11.5 -9t7 -11.5t2 -14.5q0 -12 -7 -23t-19.5 -18.5t-26.5 -9.5v0zM429 158
q-8 -6 -16 -5.5t-12 7.5l-2 4q-1 3 -1 5v4q0 4 1 6l2 4q1 2 4 3l3 5q9 7 17 5.5t12 -8.5q3 -5 2.5 -10.5t-3.5 -10.5t-7 -9v0zM821 388q6 0 11.5 3.5t9 8.5t4.5 10q1 2 1 4q13 126 -88 143q-30 6 -55 1q-8 0 -13.5 -3.5t-9.5 -10t-4 -12.5q0 -11 8 -19t19 -8q86 20 92 -55
q2 -19 -2 -35q0 -11 8 -19t19 -8v0zM802 700q-49 11 -130 -5q-1 0 -3 -1l-1 -2l-1 -1q-12 -4 -19.5 -14.5t-7.5 -22.5q0 -16 11 -27t26 -11h3q2 0 5.5 1t8 1.5t9.5 2t9 3.5t15 2t27 -2t35 -8.5t38.5 -16.5t39 -27.5t33.5 -40.5q29 -65 11 -126q0 -1 -0.5 -2t-1.5 -5.5
t-2 -8.5l-2.5 -10t-1.5 -10q0 -10 5.5 -17t14 -9.5t19.5 -2.5q31 0 36 37q14 43 15.5 82.5t-5.5 69t-21.5 55.5t-33.5 44.5t-42 33t-44.5 23.5t-44.5 15v0z" />
    <glyph glyph-name="dingdan" unicode="&#xe622;" 
d="M844 752h-61q-13 0 -24 -7.5t-11 -19.5t11.5 -22.5t23.5 -10.5h61q26 0 43 -17t17 -43v-693q0 -27 -17 -43.5t-43 -16.5h-648q-29 0 -52.5 17t-23.5 43v693q0 26 17 43t43 17h76q23 0 23 33q0 27 -23 27h-76q-60 0 -90 -33.5t-30 -88.5v-685q0 -57 33.5 -91.5t93.5 -34.5
h650q62 0 94.5 32t32.5 94v685q0 54 -32 88t-88 34zM256 480.5q0 -12.5 9 -21.5t22 -9h452q12 0 21 9t9 21.5t-9 21.5t-21 9h-452q-13 0 -22 -9t-9 -21.5zM737 345h-450q-13 0 -22 -9t-9 -21.5t9 -22t22 -9.5h452q12 0 21 9.5t9 21.5q-1 13 -10 22t-22 9zM737 164h-450
q-13 0 -22 -9t-9 -21.5t9 -21.5t22 -9h452q12 0 21 9t9 22q-1 13 -10 21.5t-22 8.5zM408 676h210q18 0 31.5 16t13.5 37t-13.5 36.5t-32.5 15.5h-209q-19 0 -32.5 -15.5t-13.5 -36.5t13.5 -37t32.5 -16z" />
    <glyph glyph-name="qq" unicode="&#xe668;" 
d="M873 28q-10 -2 -27.5 18.5t-31.5 55.5q-21 -79 -77 -135q33 -9 53 -25t20 -35q0 -28 -41.5 -48t-99.5 -20q-44 0 -79 11.5t-52 30.5q-13 -1 -27 -1q-12 0 -31 1q-16 -19 -51.5 -30.5t-78.5 -11.5q-59 0 -100.5 20t-41.5 48q0 20 21.5 36.5t57.5 24.5q-56 56 -77 134
q-14 -35 -31.5 -55.5t-28.5 -19.5q-13 2 -21 38.5t-2 89.5q4 39 22.5 78.5t39.5 54.5q0 10 1 18q10 88 33 93q-6 27 -6 53q0 77 40.5 143t108.5 104t145.5 38t145.5 -38t108.5 -104t40.5 -143q0 -27 -6 -53h1q12 -1 21.5 -27.5t14.5 -65.5q1 -9 0 -19q21 -17 38.5 -55.5
t21.5 -75.5q6 -54 -2 -90.5t-22 -37.5z" />
    <glyph glyph-name="mima" unicode="&#xe692;" 
d="M500 207h24q14 0 24.5 -10.5t10.5 -24.5v-163q0 -14 -10.5 -24.5t-24.5 -10.5h-24q-14 0 -24.5 10.5t-10.5 24.5v163q0 14 10.5 24.5t24.5 10.5zM884 323v-419q0 -19 -13.5 -32.5t-32.5 -13.5h-652q-19 0 -32.5 13.5t-13.5 32.5v419h744zM954 393h-884v-489q0 -48 34 -82
t82 -34h652q48 0 82 34t34 82v489v0zM861 393h-70v70q0 116 -83 197.5t-196 81.5q-114 0 -196.5 -82.5t-82.5 -196.5v-70h-70v70q0 93 47 174t127.5 128t174.5 47q93 0 173 -45.5t128 -126.5t48 -177v-70z" />
    <glyph glyph-name="shoucang" unicode="&#xe6bd;" 
d="M398 222zM937 543q-22 52 -62 92t-92 62q-54 22 -112 22q-87 0 -159 -47q-72 47 -159 47q-58 0 -112 -22q-52 -22 -92 -62t-62 -92q-22 -54 -22 -112q0 -99 70 -208q52 -81 143 -165q101 -95 203 -159l31 -19l31 19q102 64 203 159q91 84 143 165q70 109 70 208
q0 58 -22 112z" />
    <glyph glyph-name="jinlingyingcaiwangtubiao44" unicode="&#xe74f;" 
d="M968 490q-4 33 -19 63.5t-31 49t-36 35t-28 22t-14 8.5q-59 31 -116 31q-40 0 -76.5 -14.5t-63 -38.5t-44 -44.5t-31.5 -43.5q-90 143 -210 143q-26 0 -52.5 -7t-44.5 -16t-35 -21.5t-23 -17.5t-10 -9q-43 -44 -63.5 -97t-20 -95.5t10 -81t18 -57t10.5 -21.5
q22 -45 73 -103.5t102 -104.5t112.5 -94.5t87 -67t42.5 -30.5q5 -3 11 -3t10 3q42 26 138 107.5t166 148.5q26 24 60.5 67t43.5 63q21 41 30 83.5t8.5 73.5t-5.5 69zM901 281q-8 -16 -40 -56.5t-56 -63.5q-64 -60 -153 -136t-135 -108q-36 26 -79 59.5t-112 91t-124.5 119
t-78.5 109.5q-4 7 -10 20t-15 49t-9 71.5t17.5 82t55.5 84.5q6 7 18.5 17t48.5 26.5t70 16.5q109 0 194 -153q6 -10 17.5 -9.5t16.5 10.5q3 6 9 17t24.5 36t39.5 45t54.5 35.5t69.5 15.5q47 0 98 -26q4 -3 10.5 -7t23.5 -18t31 -29.5t26.5 -41.5t16.5 -53q5 -35 5.5 -61
t-7.5 -65.5t-27 -77.5z" />
    <glyph glyph-name="pc" unicode="&#xe613;" 
d="M936 744h-848q-29 0 -50 -21.5t-21 -51.5v-554q0 -30 21 -51.5t50 -21.5h386v-112h-175q-16 0 -27 -11t-11 -27t11 -27t27 -11h426q16 0 27 11t11 27t-11 27t-27 11h-175v112h386q29 0 50 21.5t21 51.5v554q0 30 -21 51.5t-50 21.5zM930 121h-836v546h836v-546z" />
    <glyph glyph-name="geren" unicode="&#xe619;" 
d="M511 762q111 0 189 -78t78 -189t-78 -189q-18 -18 -40 -32q85 -32 149 -97q59 -58 91.5 -135t32.5 -162q0 -15 -10.5 -26t-25.5 -11t-26 11t-11 26q0 71 -27 134.5t-75 111.5t-112 75t-135 27v0v0v0q-71 0 -135 -27t-112 -75t-75 -111.5t-27 -134.5q0 -15 -11 -26
t-26 -11t-25.5 11t-10.5 26q0 85 32.5 162t91.5 135q64 65 149 97q-22 14 -40 32q-78 79 -78 189.5t78 188.5t189 78v0zM648 632.5q-57 56.5 -137 56.5t-137 -56.5t-57 -137t57 -137.5q56 -57 137 -57v0v0v0q81 0 137 57q57 57 57 137.5t-57 137z" />
    <glyph glyph-name="icon3zanpinglunzhuanfaliulan01" unicode="&#xe606;" 
d="M889 276q-2 4 1 8q25 32 17 80q-9 57 -72 74q-16 5 -55 6q-65 3 -115 3q-6 0 -17 0.5t-14 0.5q-6 1 -5 6q5 21 5 72q1 42 -16 80q-22 51 -62 77q-28 18 -56 13t-45.5 -25.5t-17.5 -49.5q-1 -30 -7 -56q-15 -61 -58 -99q-18 -15 -56 -34q-3 -1 -9 2q-21 15 -45 15
q-39 1 -71 1q-33 -1 -54.5 -23t-21.5 -54v-197v-199q0 -30 21.5 -51.5t51.5 -21.5q8 -1 36 -0.5t36 -0.5q44 0 68 38q3 5 9 3q12 -3 37.5 -9t38.5 -9q83 -20 146 -22q52 -1 174 0q31 0 54 19q44 37 37 93q-1 6 2 8q30 24 42 80q4 23 -3 42q-2 6 3 12q45 58 21 118zM288 176
v-97v-96q0 -29 -29 -29h-66t-27 28v389q0 27 26 27h67q13 1 21 -6.5t8 -21.5v-194zM858 344q-1 -1 -1 -2.5v-2.5q-4 -37 -41 -38h-47h-8q-15 -1 -15 -13.5t15 -13.5h25.5h25.5q27 0 33 -27q7 -27 -9.5 -48.5t-44.5 -21.5h-26.5h-27.5q-15 0 -15 -13q-1 -13 15 -13
q4 -1 24 -1h23q9 0 14 -1q22 -7 20 -29t-12 -43q-10 -19 -38 -23l-53 -1h-7q-11 -2 -11 -13q0 -10 10 -12q4 -1 10 -1h16.5h15.5q13 -1 19.5 -8t5.5 -19q-2 -24 -18 -37q-12 -9 -33 -9h-73h-40q-92 -2 -189 23q-15 3 -43.5 10t-41.5 10t-17.5 9t-4.5 19v330q0 13 5 19.5
t17 12.5q103 41 138 147q12 39 14 87q0 15 11 21.5t24 0.5q24 -11 42 -44q21 -37 18 -87q-2 -47 -8 -69q-2 -5 -4 -11.5t-4.5 -14t-3.5 -12.5q-2 -5 -1 -6t6 -1h126q41 0 95 -3q20 0 37 -5q35 -10 32 -46zM226.5 53q-15.5 0 -26.5 -11t-10.5 -27t11 -26.5t26.5 -10.5t27 11
t11 26.5t-11.5 26.5t-27 11zM226 4q-4 0 -7.5 3.5t-3.5 7.5q0 5 3.5 8.5t8.5 3.5q11 -1 11 -12q0 -5 -3.5 -8.5t-8.5 -2.5z" />
    <glyph glyph-name="pinpaiyoushi" unicode="&#xe69d;" 
d="M733 0h-444q-17 0 -29 -13t-12 -32.5t12 -32.5t29 -13h444q17 0 29 13t12 32.5t-12 32.5t-29 13v0v0zM928 518q-5 5 -12 9q-24 17 -53 17q-38 0 -65.5 -28t-27.5 -67q0 -49 38 -78q-74 -88 -105 -79q-15 4 -26.5 35t-17 74t-8 66.5t-3.5 39.5q34 6 56.5 32.5t22.5 62.5
q0 40 -27.5 68t-66 28t-66 -28t-27.5 -68q0 -27 13.5 -49.5t36.5 -35.5q-6 -15 -13.5 -31.5t-19.5 -41t-25 -40t-23 -15.5q-10 1 -23 17t-25 40.5t-19 41t-13 31.5q22 13 34.5 35t12.5 48q0 40 -27.5 68t-66 28t-66 -28t-27.5 -68q0 -31 18 -56t46 -35q8 -3 17 -4
q-1 -8 -2.5 -21.5t-6.5 -48t-11.5 -61.5t-17 -50.5t-22.5 -26.5q-16 -4 -38.5 11.5t-35.5 30t-24 29.5q40 29 40 79q0 39 -27.5 67t-66.5 28q-11 0 -22 -2q-43 -5 -60 -48q-11 -21 -11 -45q0 -33 19 -58q11 -16 27 -25q22 -13 47 -13q7 0 15 1q2 -20 9 -57t20 -92.5
t31.5 -95t37.5 -40.5h480q26 0 52 71t38 134.5t12 71.5l1 7h9q25 0 46 13q30 10 38 41q10 20 10 42q0 40 -29 69v0v0z" />
    <glyph glyph-name="app" unicode="&#xe633;" 
d="M550 -57.5q0 15.5 -11 27t-27 11.5t-27 -11.5t-11 -27t11 -27t27 -11.5t27 11.5t11 27zM780 39v575q0 8 -5.5 13.5t-13.5 5.5h-498q-8 0 -13.5 -5.5t-5.5 -13.5v-575q0 -8 5.5 -13.5t13.5 -5.5h498q8 0 13.5 5.5t5.5 13.5zM857 614v-652q0 -40 -28 -68t-68 -28h-498
q-40 0 -68 28t-28 68v652q0 40 28 68t68 28h498q40 0 68 -28t28 -68zM857 614z" />
    <glyph glyph-name="zan" unicode="&#xe6e7;" 
d="M800 451q0 -11 -5 -22t-13 -19t-19 -13t-23 -5h-21q24 0 41.5 -16t17.5 -39.5t-17.5 -40.5t-41.5 -17h-22q25 0 42.5 -17t17.5 -41q0 -12 -7 -22.5t-18 -18.5t-26 -12.5t-31 -4.5q25 0 40 -17t15 -41q0 -15 -8.5 -25.5t-21.5 -17.5t-27.5 -10.5t-26.5 -3.5h-309
q-24 0 -44.5 8t-35.5 22.5t-23.5 34t-8.5 45.5v225q0 15 1 30t5.5 28t14 23.5t24.5 17.5q15 6 34 17.5t39 28t39.5 36.5t35 42.5t24.5 47t9 49.5q1 22 6 37t13.5 24t18.5 13t20 4q27 0 45 -16t26 -53q1 -32 -4 -67q-5 -30 -16 -66.5t-34 -71.5h214q25 0 42.5 -16t17.5 -40v0
zM800 451z" />
    <glyph glyph-name="shangpin" unicode="&#xe6c7;" horiz-adv-x="1053" 
d="M986 458zM892 696h-103q-25 74 -69 121q-74 79 -192 79t-192 -79q-45 -47 -70 -121h-103q-58 0 -100 -42t-42 -101v-359q0 -15 10.5 -25t25 -10t25 10t10.5 25v359q0 30 21 51t50 21h83q-10 -52 -12 -105q-23 -18 -23 -48q0 -25 17 -42.5t41.5 -17.5t41.5 17.5t17 42.5
q0 29 -23 47q1 37 7 74l6 32h418q11 -50 13 -105q-24 -18 -24 -48q0 -25 17.5 -42.5t41.5 -17.5t41.5 17.5t17.5 42.5q0 29 -23 47q-2 54 -12 106h84q29 0 49 -21t20 -51v-540q0 -29 -20 -49.5t-49 -20.5h-729q-29 0 -49.5 21t-20.5 50q0 15 -10.5 25t-25 10t-25 -10.5
t-10.5 -24.5q0 -59 41.5 -100.5t99.5 -41.5h729q58 0 98.5 41t40.5 100v540q0 59 -40.5 101t-98.5 42v0zM341 696q19 43 46 72q53 57 140.5 57t140.5 -57q27 -29 46 -72h-373v0zM341 696z" />
    <glyph glyph-name="yuedu" unicode="&#xe64a;" 
d="M972 445q-9 14 -26.5 35t-65.5 68t-98.5 83.5t-124.5 65.5t-145 29q-52 0 -105 -15.5t-95.5 -38t-84.5 -54t-70.5 -58t-54.5 -55.5t-35.5 -40.5t-14.5 -19.5q-19 -25 0 -51q9 -14 26.5 -35t65.5 -68t99 -83t124.5 -65.5t144.5 -29.5t145 29.5t124.5 65.5t98.5 83t65.5 68
t26.5 35q19 26 0 51zM512 199q-53 0 -111 22.5t-102.5 54.5t-82 64.5t-56.5 54.5l-20 23q9 11 26 27q98 108 201 157q79 42 145 42q65 0 144 -41q104 -49 203 -158l25 -27q-7 -9 -20.5 -24t-55 -52.5t-83.5 -66.5t-101 -52.5t-112 -23.5zM507.5 643q-92.5 0 -158 -65.5
t-65.5 -158t65.5 -158t158 -65.5t158.5 65.5t66 158t-66 158t-158.5 65.5zM432 396q4 -16 -4.5 -30.5t-24.5 -17.5q-4 -2 -10 -2q-13 0 -24 8.5t-15 22.5q-21 88 28 150q21 28 52 43.5t55 15.5v0q16 0 28 -11.5t12 -28t-11.5 -28t-28.5 -11.5q-8 -1 -22 -9t-25 -23
q-22 -31 -10 -79zM592.5 387q20.5 0 35.5 -15t15 -36t-15 -35.5t-35.5 -14.5t-35.5 14.5t-15 35.5t15 36t35.5 15z" />
    <glyph glyph-name="a157" unicode="&#xe62a;" 
d="M981 178v2q43 98 43 204q0 55 -12 109q0 1 -1 4q-34 150 -146.5 257.5t-264.5 133.5q-3 1 -4 1q-42 7 -84 7q-181 0 -320.5 -113t-178.5 -286q-1 -3 -1 -4q-12 -54 -12 -109v-22q1 -15 12.5 -25.5t26.5 -9.5q16 0 26.5 11.5t9.5 26.5v19q0 33 5 66h139v-21
q0 -16 10.5 -27t26 -11t26.5 11t11 27q0 7 1 21h181v-59q0 -16 11 -27t26.5 -11t26 11t10.5 27v59h181q1 -14 1 -21q0 -97 -24 -184q-4 -15 3.5 -28t22.5 -18q5 -1 10 -1q12 0 22 7.5t14 19.5q27 97 27 204q0 2 -1 21h140q4 -33 4 -66q0 -91 -36 -175q-8 -10 -21 -22.5
t-40.5 -33.5t-73 -37t-98.5 -20q-32 -3 -57 -3q-122 0 -221 59l84 89q16 18 6.5 40.5t-34.5 22.5h-337q-16 0 -26.5 -11t-10.5 -26v-337q0 -25 23 -34.5t40 7.5l84 84q31 -26 65.5 -49t95 -44.5t120.5 -21.5v0q61 0 124.5 16.5t128 49.5t121 93t91.5 139l1 2l1 2zM445 816
q14 2 30 4v-121q-58 6 -109 31q35 58 79 86zM549 820q18 -2 30 -4q44 -27 79 -86q-51 -25 -109 -31v121zM98 524q42 123 144 204q4 -9 11 -15q2 -1 16 -11q-33 -80 -45 -178h-126v0zM299 524q10 75 35 139q67 -32 141 -39v-100h-176v0zM549 524v100q73 6 141 39
q24 -64 34 -139h-175zM799 524q-11 96 -44 177q0 1 6 5l9 6q8 7 11 16q103 -80 145 -204h-127zM512 -91v38q-41 0 -82.5 12.5t-69 27.5t-54.5 36t-34.5 28.5t-12.5 13.5q-11 12 -27 12h-1q-16 0 -26 -11l-47 -46v210h214l-55 -59q-11 -12 -9.5 -29t15.5 -27q133 -96 300 -96
q29 0 63 2q49 4 94 18q-12 -10 -24 -18l-2 -2t-2 -1q-111 -71 -240 -71v-38z" />
    <glyph glyph-name="552cd445ad39f" unicode="&#xe63f;" 
d="M831 324q18 0 31 13t13 31t-13 31t-31 13h-277v53q3 5 4 11l311 269q13 12 13 30.5t-13 31t-31 12.5t-31 -12l-297 -257l-297 257q-13 12 -31 12t-31 -12.5t-13 -31t13 -30.5l310 -269q2 -6 5 -11v-53h-277q-19 0 -31.5 -13t-12.5 -31t12.5 -31t31.5 -13h277v-87h-277
q-19 0 -31.5 -13t-12.5 -31t12.5 -31t31.5 -13h277v-161q0 -18 13 -30.5t31 -12.5t31 12.5t13 30.5v161h277q18 0 31 13t13 31t-13 31t-31 13h-277v87h277z" />
    <glyph glyph-name="qrcode" unicode="&#xe60b;" 
d="M33 895h409q9 -1 15 -5.5t9.5 -13t5.5 -17t2.5 -21t0.5 -22t-0.5 -23.5t-0.5 -21v-224q0 -9 0.5 -29.5t0.5 -31.5t-2 -25.5t-7.5 -23t-15 -12.5t-28 -5t-45 0.5t-32.5 1.5h-217q-9 0 -31.5 -1t-34 -0.5t-27 3t-24 10t-10.5 19.5v410q9 24 32 31v0v0zM89 803v-292h296v296
h-295q-1 0 -1 -4v0v0zM583 895h409q27 -10 32 -37v-399q-7 -29 -29 -35q-12 -3 -29.5 -3.5t-41 1t-32.5 1.5h-210q-10 0 -34 -1.5t-41.5 -1t-29.5 3.5q-10 3 -16.5 12.5t-8.5 25.5t-2.5 28t0.5 34t1 30v209q0 11 -1 34.5t-0.5 35.5t3 27.5t10 24t20.5 10.5v0v0zM639 803
v-292h296v296h-295q-1 0 -1 -4v0v0zM224 717q30 6 51.5 -11t22.5 -46q1 -36 -29 -53.5t-60 -1.5q-22 11 -29.5 36t5 48t39.5 28v0v0zM774 717q49 9 67 -31q15 -36 -8 -66q-20 -27 -59 -21q-29 5 -41 32t-0.5 54t41.5 32v0v0zM440 -128h-406q-26 8 -33 33v408q8 24 28 30
q12 3 29 3.5t40.5 -1t33.5 -1.5h210q9 0 32.5 1.5t41.5 1.5t31 -4q10 -3 17 -12t9 -25t2.5 -28t-0.5 -34t-1 -30v-216q0 -8 0.5 -22.5t0.5 -24.5v-23t-2.5 -21.5t-6 -16.5t-10.5 -12.5t-16 -5.5v0v0zM89 252v-292h296v296h-295q-1 0 -1 -4v0v0zM1024 308v-114
q-2 -10 -1.5 -61.5t0.5 -62.5h-293v67q-6 2 -44.5 1.5t-46.5 -0.5q-2 -23 -1.5 -132t0.5 -134h-54q-13 3 -21 11.5t-10.5 24.5t-3 28t0.5 35t1 33v210q0 9 -1.5 33t-1 42t3.5 29q2 7 5.5 11.5t10 7.5t11 4.5t15 2t15 1t17.5 0t17 -0.5h199v-180h93q0 16 -0.5 91t1.5 89
q23 1 42 0.5t32 -9.5t14 -27v0v0zM231 168q33 4 54 -22.5t9 -60.5q-7 -18 -23 -28t-34 -8.5t-34 9.5t-23.5 26.5t-1.5 41.5q10 37 53 42v0v0zM829 -128h-99q0 9 -0.5 54t1.5 52h98v-106zM1024 -22v-69q-6 -28 -33 -37h-70q0 9 -0.5 53.5t1.5 52.5h102z" />
    <glyph glyph-name="xuanchuankuada" unicode="&#xe61c;" 
d="M752 423q-14 -6 -39 -9q-14 -2 -25 -2q-74 0 -127 52.5t-53 127.5q0 41 18 78q10 21 24 38q4 5 10.5 13t28.5 23t45 21l11 2h-11h-146h-73.5h-72.5h-60h-43t-15 0q-35 0 -60 -24.5t-25 -59.5v-609q0 -30 21.5 -51t50.5 -21l505 -1q35 0 60 25t25 60v365l-2 -1
q-19 -17 -47 -27zM224 730h296q-16 -20 -27 -43q-22 -45 -22 -95q0 -90 63.5 -154t153.5 -64q14 0 31 3q23 3 44 11v-302q0 -20 -13.5 -33.5t-33.5 -13.5h-383h-122q-14 0 -24 10t-10 25l-1 609q0 19 14 33t34 14zM249 494h163q7 0 11.5 4.5t4.5 11t-4.5 11t-11.5 4.5h-163
q-7 0 -11.5 -4.5t-4.5 -11t4.5 -11t11.5 -4.5zM249 570h163q7 0 11.5 4.5t4.5 10.5t-4.5 10.5t-11.5 4.5h-163q-7 0 -11.5 -4.5t-4.5 -10.5t4.5 -10.5t11.5 -4.5zM249 419h163q7 0 11.5 4.5t4.5 10.5t-4.5 10.5t-11.5 4.5h-163q-7 0 -11.5 -4.5t-4.5 -10.5t4.5 -10.5
t11.5 -4.5zM248 344h239q6 0 10 4.5t4 10.5t-4 10t-10 4h-239q-6 0 -10.5 -4t-4.5 -10t4.5 -10.5t10.5 -4.5zM912 414q-23 21 -67 63l-17 16l1 3l0.5 1l0.5 1q34 49 29 109v2v1q0 4 -1 11l-1 1v4q-1 4 -2 9l-2 6q-1 4 -3 8q-1 3 -2.5 7t-2.5 7q-2 3 -4 8q-2 3 -3.5 6t-4.5 8
l-1 1q-2 3 -3 4l-6 9l-1 1l-3 3q-5 6 -11 12q-48 46 -115 46q-72 0 -121 -52q-48 -50 -46.5 -119.5t51.5 -117.5q6 -5 13 -10q1 -1 3 -2q0 -1 1 -2h1q5 -4 8 -6q1 0 4 -2l2 -1q5 -3 8 -5q2 -1 5 -2l2 -1q5 -2 7 -3t7 -2v-1q5 -1 8 -2t8 -2q4 -1 7 -2q5 0 8 -1q3 0 7 -1h9
q2 -1 6 -1h3q4 0 6 1h4h1q7 0 11 1h2l2 1q7 1 11 2h1.5h0.5q36 9 65 33l23 -22q39 -37 62 -59q13 -12 21 -12v0q8 0 15 7q14 16 -7 36zM829.5 597q1.5 -57 -37.5 -98q-41 -43 -99 -43q-55 0 -95 38q-41 39 -42.5 96t37.5 98q41 43 100 43q55 0 94 -38q41 -39 42.5 -96z" />
    <glyph glyph-name="wancheng" unicode="&#xe657;" 
d="M513 -64q-91 0 -174 35.5t-143 95.5t-95.5 142.5t-35.5 174t35.5 174t95.5 142.5t143 95.5t174 35.5t174 -35.5t143 -95.5t95 -142.5t35 -174t-35 -174t-95 -142.5t-143 -95.5t-174 -35.5zM512.5 747q-98.5 0 -182.5 -48.5t-132.5 -132.5t-48.5 -182.5t48.5 -182.5
t132.5 -132.5t182.5 -48.5t182.5 48.5t133 132.5t49 182.5t-49 182.5t-133 132.5t-182.5 48.5zM500 228q-12 -12 -29.5 -12t-29.5 12l-140 140q-13 13 -12 31q1 17 12 28t28 12q19 1 32 -12l110 -110l194 194q13 13 31 12q17 -1 28.5 -12t11.5 -28q1 -18 -12 -31z" />
    <glyph glyph-name="guanbi01" unicode="&#xe621;" horiz-adv-x="1025" 
d="M715 383.5q0 -10.5 -7 -17.5l-254 -253q-7 -8 -17.5 -8t-18 7.5t-7.5 18t7 18.5l236 235l-236 235q-7 8 -7 18.5t7.5 18t18 7.5t17.5 -8l254 -253q7 -8 7 -18.5zM1024 384q0 -104 -40.5 -199t-109 -163.5t-163.5 -109t-199 -40.5t-199 40.5t-163.5 109t-109 163.5
t-40.5 199t40.5 199t109 163.5t163.5 109t199 40.5t199 -40.5t163.5 -109t109 -163.5t40.5 -199zM51 384q0 -94 36.5 -179t98.5 -147t147 -98.5t179 -36.5t179 36.5t147 98.5t98.5 147t36.5 179t-36.5 179t-98.5 147t-147 98.5t-179 36.5t-179 -36.5t-147 -98.5t-98.5 -147
t-36.5 -179z" />
    <glyph glyph-name="resource" unicode="&#xe67b;" 
d="M798 768h-576q-39 0 -67.5 -28t-28.5 -68v-576q0 -40 28.5 -68t67.5 -28h429q20 0 34 14t14 34v480q0 20 -14 34t-34 14t-34 -14t-14 -34v-344q0 -4 -0.5 -10t-5.5 -21t-13.5 -26.5t-25.5 -21t-40 -9.5h-200q-39 0 -67.5 28t-28.5 68v384q0 40 28.5 68t67.5 28h384
q40 0 68 -28t28 -68v-384v-96q0 -20 14 -34t34 -14t34 14t14 34v576q0 40 -28 68t-68 28z" />
    <glyph glyph-name="zixun" unicode="&#xe6e8;" 
d="M510 827q-116 0 -214.5 -51.5t-156 -140t-57.5 -193.5q0 -94 48 -177.5t133 -137.5v-191l168 127q38 -6 79 -6q116 0 214.5 51.5t156 140t57.5 193.5t-57.5 193.5t-156 140t-214.5 51.5zM510 107q-47 0 -94 11h-2l-91 -65l1 98l-3 1q-87 45 -138 123t-51 167q0 91 51 168
t137.5 122t189 45t189.5 -45t137.5 -122t50.5 -168t-50.5 -168t-137.5 -122t-189 -45zM682 376h-340q-9 0 -15 -8t-6 -20v-10q0 -12 6 -20.5t15 -8.5h340q9 0 15 8.5t6 20.5v10q0 12 -6 20t-15 8zM737 559h-450q-11 0 -19 -8t-8 -20v-10q0 -12 8 -20.5t19 -8.5h450
q11 0 18.5 8.5t7.5 20.5v10q0 12 -7.5 20t-18.5 8v0z" />
    <glyph glyph-name="huiyuan" unicode="&#xe60d;" 
d="M1007 508.5q0 30.5 -22 52.5t-53 22q-30 0 -52 -22t-22 -53q0 -9 3 -19q-13 -4 -22 -10l-135 -80l-118 171q-9 16 -27 30q24 24 24 57q0 34 -24.5 58t-58 24t-57.5 -24t-24 -58q0 -33 23 -57q-18 -14 -27 -30l-117 -171l-135 79l-1.5 1.5t-1.5 0.5q6 14 6 28
q0 31 -22 52.5t-52.5 21.5t-52.5 -21.5t-22 -52.5q0 -24 14.5 -43.5t37.5 -26.5v-16v-168q0 -11 8 -19.5t19.5 -8.5t19.5 8.5t8 19.5v168q0 10 1 14q4 -1 8 -4l1 -1l158 -93q10 -5 20.5 -3t16.5 12l133 193q0 1 0.5 1.5l0.5 0.5q0 1 4.5 6.5t13.5 11.5t20 7v0h1
q7 -1 13 -3.5t10.5 -6t7.5 -7t5 -5.5l1 -3l2 -2l133 -193q6 -9 16.5 -11.5t19.5 2.5l158 93l1 1q4 3 8 4q1 -4 1 -14v-230h-782q-11 0 -19 -8t-8 -19v-111q0 -11 8 -19t19 -8h810q11 0 19 8t8 19.5t-8 19.5t-19 8h-782v55h782q11 0 19 8t8 20v257v12q30 0 52 22t22 52.5z
M92 528q8 0 13.5 -6t5.5 -13.5t-5.5 -13.5t-13.5 -6t-13.5 6t-5.5 13.5t5.5 13.5t13.5 6zM501 684q11 0 19 -8t8 -19t-8 -19t-19 -8t-19 8t-8 19t8 19t19 8zM932 489q-8 0 -13.5 5.5t-5.5 13.5t5.5 13.5t13.5 5.5t13.5 -5.5t5.5 -13.5t-5.5 -13.5t-13.5 -5.5z" />
    <glyph glyph-name="xuanchuantuiguang" unicode="&#xe6f3;" 
d="M314 249q0 -14 9.5 -24t24.5 -10h102v-69h-137q-14 0 -26 6q-13 5 -22 14.5t-14.5 22t-5.5 26.5v342q0 14 5.5 26.5t15 21.5t21.5 14.5t26 5.5h377q14 0 26.5 -5.5t22 -14.5t14.5 -21.5t5 -26.5v-135l-68 -1v33q0 15 -10 24.5t-24 9.5h-308q-15 0 -24.5 -9.5t-9.5 -24.5
v-205v0v0zM776 281q12 -9 12 -18t-11 -18q-13 -11 -28 -22q-19 -15 -33 -26q-17 -14 -33 -26q-14 -12 -29 -24q-15 -11 -24 -8t-9 17q1 9 0 22v22q0 11 -6 13.5t-17 2.5h-21h-19.5t-19.5 0.5t-22 0.5q-5 0 -11 1t-10.5 3.5t-7.5 8t-3 15.5v43q0 17 8 22.5t26 5.5h33t38 -1
q16 0 25 3t9 14q-1 8 0 19t1 20q0 14 7.5 17.5t19.5 -5.5q16 -12 29 -23q16 -13 33 -27q19 -16 34 -28q20 -16 29 -24v0v0zM512.5 893q-103.5 0 -198 -40.5t-162.5 -108.5t-108.5 -162.5t-40.5 -198t40.5 -197.5t108.5 -162t162.5 -108.5t198 -40.5t197.5 40.5t162 108.5
t108.5 162t40.5 197.5t-40.5 198t-108.5 162.5t-162 108.5t-197.5 40.5zM512.5 -90q-96.5 0 -184.5 37.5t-151.5 101t-101 151t-37.5 184t37.5 184.5t101 151.5t151.5 101t184.5 37.5t184 -37.5t151 -101t101 -151.5t37.5 -184.5t-37.5 -184t-101 -151t-151 -101t-184 -37.5
z" />
    <glyph glyph-name="moshi" unicode="&#xe605;" horiz-adv-x="1025" 
d="M828 64q-107 -105 -256 -125t-284 56q-133 77 -190.5 217t-20.5 285l-36 21q-23 -78 -17.5 -160t34 -155.5t82.5 -137t128 -105.5q150 -85 315 -60.5t281 143.5l-36 21v0zM101 603zM81 603q0 8 5.5 14t14 6t14.5 -6t6 -14t-6 -14t-14.5 -6t-14 6t-5.5 14zM512.5 737
q-95.5 0 -177 -47t-129 -128.5t-47.5 -177.5t47.5 -177.5t129 -128.5t177 -47t177 47t129 128.5t47.5 177.5t-47.5 177.5t-129 128.5t-177 47zM513 102q-117 0 -199.5 82.5t-82.5 199.5t82.5 199.5t199.5 82.5t199.5 -82.5t82.5 -199.5t-82.5 -199.5t-199.5 -82.5zM757 808
q-106 61 -226 65.5t-227.5 -46t-180.5 -146.5l35 -20v0q68 86 166 131.5t207.5 41t205.5 -60.5q72 -42 124 -106.5t77 -138t23.5 -155.5t-32.5 -157l35 -21q35 83 37.5 173t-24.5 171t-83.5 152t-136.5 117zM904 130zM884 130.5q0 8.5 5.5 14t14 5.5t14.5 -5.5t6 -14
t-6 -14.5t-14.5 -6t-14 6t-5.5 14.5z" />
    <glyph glyph-name="danren03" unicode="&#xe693;" 
d="M920 353q40 48 40 111q0 73 -51.5 124.5t-124.5 51.5q-24 0 -47 -6q-8 79 -65 136q-66 66 -159.5 66t-160.5 -66q-56 -57 -65 -136v0q-23 6 -47 6q-73 0 -124.5 -51.5t-51.5 -124.5q0 -63 40 -111q-104 -99 -104 -185v-60q0 -24 17.5 -41.5t41.5 -17.5h37v-1
q0 -20 14 -34t34 -14h234h81h106h79h236q20 0 34 14t14 34v1h37q24 0 41.5 17.5t17.5 41.5v60q0 86 -104 185zM863 543q33 -33 33 -79t-33 -79q-4 -4 -8 -7l-1 -2q-9 -7 -20 -12v0q-1 -1 -4 -2v0v0q-1 -1 -4 -2h-1q-1 -1 -3 -1q-1 -1 -2 -1h-0.5t-1.5 -1h-1t-2 -0.5
t-1.5 -0.5t-1.5 -0.5t-2 -0.5h-0.5t-1 -0.5t-1 -0.5h-1h-1h-1.5l-1 -0.5l-1 -0.5h-3h-0.5h-0.5q-1 0 -2 -0.5t-2 -0.5h-0.5h-0.5h-4h-1h-4q-17 0 -33 5q-1 1 -1 2q-35 50 -84 85l6 6q48 48 62 114q23 12 50 12q46 0 79 -33zM512 772q67 0 114.5 -47.5t47.5 -114.5
q0 -53 -31 -95.5t-81 -58.5l-1 -0.5l-1 -0.5q-1 0 -2 -1h-1h-2l-1 -1q-6 -1 -10 -2v0q-3 -1 -5 -1h-1q-4 -1 -10 -1v0q-2 -1 -5 -1h-0.5h-0.5h-1.5h-2.5h-1h-2.5h-2.5h-5h-1h-4h-1q-3 0 -5 1v0q-5 0 -10 1h-1q-2 0 -4 1h-1q-6 1 -9 2q-1 0 -1.5 0.5t-1.5 0.5h-2q-1 1 -2 1
l-1 0.5l-1 0.5l-6 2v0q-47 17 -76.5 58.5t-29.5 93.5q0 67 47.5 114.5t114.5 47.5zM286 610v0v0v0zM286 622v0v0zM286 616v0v0zM288 581v0v0zM287 586v1v-1zM287 592v0v0zM287 597q0 1 -1 1l0.5 -0.5zM286 603v1v-1zM161 543q33 33 79 33q27 0 51 -12q13 -66 61 -114l6 -6
q-48 -35 -84 -85q0 -1 -1 -2q-16 -5 -33 -5h-4h-1h-2h-2h-0.5h-0.5q-3 1 -4 1h-0.5h-0.5h-3q-1 0 -2 1h-1.5h-0.5q-1 0 -3 1h-1.5t-1.5 0.5t-2 0.5h-1q-1 1 -3 2h-1.5h-0.5l-1 0.5t-1.5 0.5t-1 0.5t-1.5 0.5h-1q-1 1 -2 1t-2 1v0v0q-1 0 -2.5 1l-1.5 1v0q-10 5 -20 13l-1 1
q-5 4 -8 7q-33 33 -33 79t33 79zM252 322v0v0zM250 318v0v0zM248 314v0v0zM246 310v0v0zM244 305v0v0zM242 301v0v0zM240 297v0v0zM64 113v56q0 59 89 142q35 -20 75 -23h1.5h0.5h2h1.5h1.5h1h1q-13 -35 -13 -64v-96q0 -40 32 -64h-90q1 3 1 7l1 101q0 8 -5.5 14t-14.5 6v0
q-8 0 -14 -6t-6 -14v-59h-64zM459 64h-54l1 145q0 8 -5.5 14t-14 6t-14.5 -5.5t-6 -14.5l-1 -97h-61q-7 0 -11.5 4.5t-4.5 11.5v96q0 43 39 98q37 53 88 84q40 -19 84 -22h1h5h1h6h6h1h3h2h1q45 3 84 22q52 -31 88 -84q39 -55 39 -98v-96q0 -6 -4.5 -11t-11.5 -5h-58v97
q0 8 -6 14t-14 6v0q-8 0 -14 -5.5t-6 -14.5v-145h-57h-106zM960 113h-64v59q0 8 -6 14t-14 6v0q-8 0 -14 -6t-6 -14l-1 -108h-87q32 24 32 64v96q0 30 -13 64h1h3h3l1 0.5l1 0.5q40 2 75 22q89 -83 89 -142v-56v0z" />
    <glyph glyph-name="xianshang" unicode="&#xe856;" horiz-adv-x="1221" 
d="M877 370q23 4 45 4q105 0 178.5 -72.5t73.5 -176.5q0 -63 -32 -120h-105q53 49 53 120q0 69 -49 117.5t-119 48.5v0h-125v125q0 86 -61.5 147t-148.5 61t-148.5 -61t-61.5 -147v0v-125h-125v0q-70 0 -119 -48.5t-49 -117t49 -117.5t119 -49v0h668v-83h-710v4
q-90 15 -150 84.5t-60 160.5q0 104 73.5 176.5t178.5 72.5q22 0 46 -4q-4 25 -4 46q0 120 85.5 205t207.5 85t208 -85t86 -205q0 -21 -4 -46v0zM757 289h-3q0 1 1 2l2 2v-4zM422 289h-3v4l2 -2t1 -2v0zM1024 682q61 -83 46 -186l-57 3q14 82 -35 150q-50 69 -135 81l15 55
q105 -18 166 -103v0zM1187 494l-58 2q16 122 -56 221t-192 123l15 56q140 -30 223 -145q84 -116 68 -257v0z" />
    <glyph glyph-name="zuanshi-copy" unicode="&#xe614;" 
d="M511 -43q-32 0 -53 28l-375 499q-18 25 -19 59t16 60l108 155q15 23 45.5 38t59.5 15h436q30 0 60 -15t46 -38l107 -156q17 -26 16.5 -59.5t-19.5 -58.5l-374 -499q-22 -28 -54 -28v0zM293 758q-16 0 -34.5 -9t-26.5 -21l-108 -156q-7 -11 -6.5 -28t8.5 -27l374 -500
q11 -14 22 0l374 499q9 11 9 27.5t-7 28.5l-108 156q-8 12 -26.5 21t-34.5 9h-436zM936 530h-816q-6 0 -10 4t-4 9.5t4 9.5t10 4h816q5 0 9 -4t4 -9.5t-4 -9.5t-9 -4zM490 535q-5 0 -9 4l-247 226q-10 9 -1 18.5t19 0.5l247 -225q10 -9 1 -19q-4 -5 -10 -5zM524 535
q-6 0 -10 5q-9 10 1 19l131 120q10 9 19 -1t-1 -19l-131 -120q-4 -4 -9 -4zM689 687q-5 0 -9 4q-9 10 0 19l10 9q10 9 19 -1t-1 -19l-9 -9q-4 -3 -10 -3zM731 725q-6 0 -10 4q-9 10 1 19l40 36q10 9 19 -0.5t-1 -18.5l-40 -37q-4 -3 -9 -3zM316 490q-9 0 -12 9l-17 40
q-4 12 8.5 17t16.5 -7l16 -41q5 -12 -7 -17q-2 -1 -5 -1zM334 445q-9 0 -13 8l-4 12q-5 13 7.5 18t16.5 -8l5 -12q5 -12 -7 -17q-3 -1 -5 -1zM511 -9q-9 0 -12 9l-160 407q-5 13 7.5 17.5t17.5 -7.5l160 -407q4 -13 -8 -18q-2 -1 -5 -1v0zM511 -9q-2 0 -5 1q-12 5 -7 18
l206 533q5 12 17.5 7t7.5 -17l-206 -533q-4 -9 -13 -9v0z" />
    <glyph glyph-name="6" unicode="&#xe6fa;" 
d="M746 655l132 132q7 8 7 18.5t-7.5 18.5t-18.5 8t-18 -8l-140 -140q-88 48 -189 48q-99 0 -187 -47l-139 139q-7 8 -17.5 8t-18 -7.5t-7.5 -18t8 -17.5l131 -131q-78 -55 -123 -140t-45 -184q0 -108 53.5 -199.5t145 -145t199.5 -53.5t199.5 53.5t145 145t53.5 199.5
q0 97 -44 181.5t-120 139.5zM512 -14q-94 0 -174.5 46.5t-127 127t-46.5 174.5t46.5 174.5t127 127t174.5 46.5t174.5 -46.5t127 -127t46.5 -174.5t-46.5 -174.5t-127 -127t-174.5 -46.5zM512 508q-10 0 -17.5 -7.5t-7.5 -17.5v-298q0 -10 7.5 -17.5t17.5 -7.5t17.5 7.5
t7.5 17.5v298q0 10 -7.5 17.5t-17.5 7.5z" />
    <glyph glyph-name="gouwuchetianjia" unicode="&#xe64b;" 
d="M803 0zM739 0q0 26 19 45t45.5 19t45 -19t18.5 -45t-18.5 -45t-45 -19t-45.5 19t-19 45zM346 0zM282 0q0 26 18.5 45t45 19t45.5 -19t19 -45t-19 -45t-45.5 -19t-45 19t-18.5 45zM774 778q-81 0 -139.5 -58.5t-58.5 -140t58.5 -140t140 -58.5t140 58.5t58.5 139.5
q2 82 -56.5 140.5t-142.5 58.5zM774 432q-62 0 -106 43.5t-44 103.5q0 62 44 104.5t106 42.5q63 0 107 -43.5t44 -103.5q0 -62 -44 -104.5t-107 -42.5zM368 246q0 -9 8 -15.5t18 -6.5l492 42q10 0 16.5 7.5t6.5 17.5t-8 16.5t-18 6.5l-493 -42q-10 0 -17 -7t-5 -19zM845 605
h-48v48q0 10 -7 17.5t-19 7.5q-25 0 -25 -25v-48h-48q-11 0 -18.5 -7t-7.5 -19q0 -10 7 -17.5t19 -7.5h48v-48q0 -11 7 -18.5t18 -7.5q26 0 26 26v48h48q10 0 17.5 7t7.5 18q-2 11 -9 18.5t-16 7.5zM330 704h188q11 0 18.5 7t7.5 19q0 10 -7 17.5t-19 7.5h-188
q-11 0 -18.5 -7t-7.5 -18.5t7.5 -18.5t18.5 -7zM886 154h-524q-21 0 -40 15.5t-24 35.5l-93 547q-7 39 -39.5 66t-72.5 27h-23q-10 0 -17.5 -7t-7.5 -19q0 -10 7 -17.5t18 -7.5h23q22 0 40.5 -15t23.5 -37l93 -547q7 -39 39 -66t73 -27h524q11 0 18.5 7.5t7.5 18.5
q0 10 -8 18t-18 8z" />
    <glyph glyph-name="fahuo" unicode="&#xe603;" horiz-adv-x="1138" 
d="M135 895h637q45 0 77.5 -32.5t32.5 -78.5v-185l235 -138v-1q11 -8 11 -21v-375q0 -12 -7.5 -21t-18.5 -9t-18.5 9t-7.5 21v360l-233 137q-19 7 -19 27v0v0v190q0 24 -17 41t-41 17h-625q-24 0 -41 -17t-17 -41v-624q0 -12 -8.5 -21t-20.5 -9t-20.5 9t-8.5 21v630
q0 46 32 78.5t78 32.5v0v0v0zM923 340q11 0 19.5 -8.5t8.5 -20t-8.5 -20t-19.5 -8.5v0h-146q-26 0 -40 14t-15 29l-1 14v117q0 11 8 19.5t19.5 8.5t20 -8.5t8.5 -19.5v0v-117h146v0zM268 188q55 0 95.5 -37t47.5 -92h291q7 55 47.5 92t95.5 37q59 0 101.5 -43t42.5 -104
t-42.5 -103.5t-101.5 -42.5q-52 0 -91 32.5t-50 81.5h-295q-11 -49 -50.5 -81.5t-90.5 -32.5q-60 0 -102 42.5t-42 103.5t42 104t102 43v0v0v0zM845 -43q34 0 58.5 24.5t24.5 59.5t-24.5 59.5t-59 24.5t-59 -24.5t-24.5 -59.5t24.5 -59.5t59.5 -24.5v0v0v0zM268 -43
q35 0 59 24.5t24 59.5t-24 59.5t-58.5 24.5t-59 -24.5t-24.5 -59.5t24.5 -59.5t58.5 -24.5v0v0v0z" />
    <glyph glyph-name="h5" unicode="&#xe60c;" 
d="M513 95q-6 0 -12 2l-186 71q-21 8 -22 30l-7 84q-1 14 8 25t23.5 12.5t25.5 -8t12 -23.5l5 -62l154 -59l162 59l6 149h-367q-14 0 -24 9.5t-11 23.5l-13 208q-1 16 9.5 27t25.5 11h434q14 0 24.5 -10.5t10.5 -25t-10.5 -24.5t-24.5 -10h-397l9 -139h371q15 0 25 -10.5
t10 -25.5l-9 -210q-1 -23 -24 -31l-196 -71q-6 -2 -12 -2zM513.5 -85q-6.5 0 -12.5 3l-341 132q-22 8 -23 31l-34 714q0 13 5 21.5t15.5 11.5t18.5 4t25 1q90 1 364 -1v0q-1 0 26 0t65.5 0.5t86 0.5h86h65.5q14 0 21.5 -1t18.5 -4t16 -11t5 -20l-34 -716q-1 -23 -22 -31
l-339 -132q-6 -3 -12.5 -3zM206 107l307 -119l305 119l31 656q-22 1 -55 1q-103 0 -263 -2v0h-6h-17.5t-26.5 0.5t-33.5 0.5h-38.5h-42h-43.5t-43.5 0.5t-40 0.5q-40 0 -65 -1z" />
    <glyph glyph-name="pinpai" unicode="&#xe72d;" horiz-adv-x="1025" 
d="M261 580q-6 -16 -6 -34q0 -40 27.5 -67.5t67.5 -27.5t67.5 27.5t27.5 67.5t-27.5 67.5t-67.5 27.5q-18 0 -34 -6l-142 142q-11 11 -27 11t-27.5 -11.5t-11.5 -27.5t11 -27zM984 423l-433 433q-40 40 -97.5 40t-97.5 -40l-56 -56h1q-9 -10 -9 -24q0 -15 10.5 -26t25.5 -11
q14 0 24 9h1l55 55q19 19 45.5 19t44.5 -19l433 -432q19 -19 19 -45.5t-19 -45.5l-315 -315q-19 -19 -45.5 -19t-45.5 19l-432 432q-19 19 -19 45.5t19 45.5l55 55v0q9 11 9 24q0 16 -11 26.5t-26 10.5q-14 0 -24 -9v1l-56 -56q-40 -40 -40 -97.5t40 -97.5l433 -433
q41 -40 98 -40t97 40l316 316q40 40 40 97.5t-40 97.5z" />
    <glyph glyph-name="shouhuo" unicode="&#xe635;" 
d="M928 618l-76 147q-14 27 -44.5 45.5t-61.5 18.5h-468q-30 0 -61 -18.5t-45 -45.5l-76 -143q-12 -23 -20.5 -57.5t-8.5 -60.5v-482q0 -34 24.5 -58.5t58.5 -24.5h724q34 0 58.5 24.5t24.5 58.5v479q0 26 -8.5 60t-20.5 57zM145 596l76 143q7 14 24.5 24.5t32.5 10.5h468
q15 0 32.5 -10.5t24.5 -24.5l76 -146q5 -9 10 -26h-755q6 19 11 29zM902 22q0 -11 -8.5 -19.5t-19.5 -8.5h-724q-11 0 -19 8.5t-8 19.5v482v8h778q1 -10 1 -11v-479zM746 358l-140 -149l-57 56q-8 8 -19.5 8t-19.5 -8t-8 -19.5t8 -19.5l76 -76q8 -8 20 -8q5 0 11 2q7 3 11 7
l159 169q6 8 6 19t-8 19.5t-19.5 8.5t-19.5 -9zM429 318h-167q-11 -1 -19 -9t-8 -19t8 -19.5t19 -8.5h167q12 0 20 8t8 19.5t-8 20t-20 8.5zM345 199h-84q-11 0 -19 -8.5t-8 -19.5t8 -19t19 -9h84q11 0 19 8.5t8 20t-8 19.5t-19 8z" />
    <glyph glyph-name="lingshou" unicode="&#xe6e2;" horiz-adv-x="1173" 
d="M525 814q7 13 7 27q0 22 -16.5 38.5t-38.5 16.5q-34 0 -49 -31l-149 -282h124l122 231v0zM648 814l122 -231h125l-149 282q-6 13 -20.5 22t-28.5 9q-23 0 -39 -16t-16 -39v0q-1 -12 6 -27zM829 72h-124l13 75h124l-13 -75v0zM899 38l50 287q1 4 1 7q0 9 -4 16
q-4 10 -14 16.5t-20 6.5h-625q-25 0 -34 -22q-6 -11 -4 -24l51 -287v-4q0 -15 11 -26t26 -11v0h525v0q15 0 26 11t11 26v4v0zM868 297l-13 -75h-124l14 75h123v0zM629 72h-84l-13 75h110l-13 -75v0zM655 222h-137l-13 75h164l-14 -75v0zM344 222l-14 75h99l13 -75h-98z
M357 147h99l13 -75h-99l-13 75v0zM1174 467v0v-1q0 -23 -16 -39t-39 -16h-49l-118 -474q-4 -17 -19.5 -29.5t-33.5 -12.5v0h-624h-1q-17 0 -33 12.5t-20 29.5l-118 474h-48q-23 0 -39 16t-16 39t16 39t39 16h1068q18 -1 32.5 -14.5t17.5 -31.5q1 0 1 -2v-6v0z" />
    <glyph glyph-name="ziyuan" unicode="&#xe63c;" horiz-adv-x="1363" 
d="M218 -3h-142q14 88 67.5 157t133.5 103l48 24l-57 34q-50 31 -79 82t-29 111q0 82 52 144.5t131 77.5q47 86 124 137l-82 -61q-123 -1 -210.5 -87.5t-88.5 -209.5v-1q0 -64 26 -121.5t73 -98.5q-83 -56 -132.5 -143t-52.5 -189v-30h202q12 76 43 145zM998 734
q87 -8 145.5 -72.5t58.5 -152.5q0 -60 -29.5 -111.5t-79.5 -82.5l-58 -34l59 -29q79 -38 130.5 -109t61.5 -159l-158 13q20 -68 22 -144l213 72l-3 38q-5 102 -56 188.5t-134 139.5q50 38 77.5 94.5t27.5 122.5v1q-1 123 -88.5 210.5t-210.5 88.5h-26q59 -70 79 -161z
M913 280h-4h4zM673 824h1q108 0 184 -76t76 -184q0 -70 -34.5 -129t-92.5 -94l-113 -69l117 -57q88 -42 147 -119.5t76 -174.5l-718 23q22 96 85.5 170t152.5 110l97 48l-112 67q-59 35 -93.5 94.5t-34.5 129.5q0 108 76 184t184 76h2v1zM673 894q-90 0 -166.5 -44.5
t-120.5 -120.5t-44 -166q0 -89 43 -164t116 -119q-118 -59 -191 -169.5t-78 -244.5l880 6q-6 134 -80.5 243.5t-191.5 164.5q76 44 120.5 119.5t44.5 164.5q0 90 -44 166.5t-120.5 121t-166.5 44.5h-1v-2z" />
    <glyph glyph-name="yanzhengma" unicode="&#xe641;" 
d="M160 -3q-38 0 -64.5 27t-26.5 65v546q0 38 26.5 64.5t64.5 26.5h702q38 0 65 -26.5t27 -64.5v-546q0 -38 -27 -65t-65 -27h-702zM160 695q-25 0 -42.5 -17.5t-17.5 -42.5v-546q0 -25 17.5 -43t42.5 -18h702q25 0 43 18t18 43v546q0 25 -18 42.5t-43 17.5h-702v0zM160 695
zM271 336q-16 0 -27.5 11t-11.5 27.5t11.5 27.5t27.5 11t27.5 -11t11.5 -27.5t-11.5 -27.5t-27.5 -11zM271 336zM751.5 336q-16.5 0 -28 11t-11.5 27.5t11.5 27.5t28 11t27.5 -11t11 -27.5t-11 -27.5t-27.5 -11zM751 336zM511 336q-16 0 -27.5 11t-11.5 27.5t11.5 27.5
t27.5 11t27.5 -11t11.5 -27.5t-11.5 -27.5t-27.5 -11zM511 336z" />
    <glyph glyph-name="hetong" unicode="&#xe70b;" 
d="M678 -102h-550q-53 0 -90.5 37.5t-37.5 90.5v716q0 53 37.5 90.5t90.5 37.5h550q53 0 90.5 -37.5t37.5 -90.5v-230q0 -19 -12.5 -32t-32 -13t-32 13t-12.5 32v230q0 20 -13 32.5t-32 12.5h-544q-19 0 -32 -12.5t-13 -32.5v-723q0 -19 13 -32t32 -13h550q20 0 32.5 13
t12.5 32v83q0 20 13 32.5t32 12.5t32 -12.5t13 -32.5v-83q-5 -49 -44 -85t-91 -36zM934 576l-300 -294l-20 -122l116 32l294 294zM211 128h-13q-12 26 -6 32q25 45 48 77t36.5 46.5t27.5 22t17.5 8t11.5 0.5t16.5 -8t8.5 -24q7 -20 7 -64v-13l19 19q5 5 11.5 12t10 10.5
t10 9.5t9.5 8l9 6t8.5 4t8.5 2t10 -1q8 -3 14.5 -9t11 -13.5t6.5 -9.5q10 -21 0 -32q6 0 13 7q9 4 17 0t8 -13q5 -10 1 -18t-14 -8q-6 -2 -17 -7t-15.5 -6.5t-11.5 -3.5t-11.5 -0.5t-8.5 4.5q-5 6 -6.5 12t-0.5 15.5t1 11.5q0 1 1.5 7.5t1.5 12.5t-3 12l-32 -32l-19 -19
q-6 -13 -20 -21.5t-31 -4.5q-6 2 -9.5 5.5t-6 11t-4 12.5t-3.5 17l-3 18q0 32 -6 51q-42 -41 -90 -128q0 -19 -13 -19zM173 614h467v-38h-467v38zM173 531h467v-45h-467v45zM173 448h384v-45h-384v45z" />
    <glyph glyph-name="zhuangxiu" unicode="&#xe602;" horiz-adv-x="1025" 
d="M882 196l29 -28q10 -10 10.5 -24.5t-8.5 -23.5l-106 -90q-10 -10 -24.5 -10t-24.5 10l-274 273q-31 31 -75 31t-75 -31l-11 -11l-67 68q-11 10 -25.5 10t-24.5 -10l-22 -21l-153 -153q-31 -30 -31 -74t31 -75l92 -92q31 -31 74.5 -31t74.5 31l149 159l22 21
q10 11 10 25.5t-10 24.5l-70 68l11 10q10 11 24.5 11t25.5 -11l3 -3l271 -270q31 -31 75 -31q43 0 72 29l106 90q31 31 31 74.5t-31 74.5l-29 29zM212 266q10 9 23 9t22 -9l95 -95q9 -10 9.5 -23t-8.5 -23l-107 -115q-17 -19 -43.5 -19.5t-45.5 17.5l-57 54q-19 18 -20 44.5
t18 44.5zM839 337q-15 0 -25 11l-340 336q-10 10 -10 24.5t10.5 24.5t25 10t24.5 -10l340 -336q10 -11 10 -25.5t-10.5 -24.5t-24.5 -10zM534 821q-6 6 -16 9q-26 8 -43 -9l-143 -143q-12 -12 -12 -29t12 -29l413 -411q12 -13 29.5 -13t28.5 12l34 34l49 49l61 60
q12 13 12 30t-12 29zM992 455q31 -31 31 -74.5t-31 -74.5l-60 -60l-50 -50l-32 -33q-31 -31 -75 -31t-75 31l-413 411q-31 31 -31 74.5t31 74.5l143 143q20 21 50 27.5t57 -2.5q25 -7 43 -25z" />
    <glyph glyph-name="dianmianguanli" unicode="&#xe6ab;" 
d="M380 -27v141v7t3.5 17.5t9.5 22t20 17.5t33 8h135q19 0 32.5 -8t20 -17.5t10 -22t3.5 -17v-7.5v-170h197v344q-23 -5 -38 -5q-84 0 -146 63q-25 -26 -68 -44.5t-78 -18.5q-84 0 -146 62q-62 -62 -146 -62q-24 0 -40 4v-342h198v28zM579 -55v175h-133v-175h133zM114 318
q-48 33 -78 86.5t-30 114.5q0 17 4 27l115 303q4 18 20 30t35 12h666q20 0 35.5 -12.5t20.5 -33.5l114 -299q4 -10 4 -21q0 -64 -30.5 -121t-78.5 -90v-369q-1 -1 0.5 -7.5t-1.5 -17t-8 -20t-18.5 -16.5t-32.5 -7h-676q-19 0 -32 7t-18 17t-7.5 20t-2.5 17l1 7v373h-2z
M368 460l28 -43q21 -31 52 -49t66 -18q34 0 65.5 18t52.5 50l28 43l28 -43q21 -32 52 -49.5t66 -17.5q61 0 104 49t43 119l-115 306h-650l-115 -303q1 -72 44 -122t105 -50q34 0 65.5 18t51.5 49z" />
    <glyph glyph-name="wodeyouhuiquan" unicode="&#xe601;" 
d="M877 730h-727q-43 0 -72.5 -30t-29.5 -73v-166h26q20 0 35.5 -15.5t15.5 -39.5q0 -22 -15 -38t-36 -16h-26v-170q0 -43 29.5 -72.5t72.5 -29.5h727q43 0 72.5 29.5t29.5 72.5v170h-22q-20 0 -35.5 15.5t-15.5 38.5q0 22 14.5 38.5t36.5 16.5h22v169q-2 41 -32 70.5
t-70 29.5zM851 410q0 -36 21 -63t53 -37v-121q0 -22 -15 -36.5t-36 -14.5h-727q-21 0 -36 14.5t-15 36.5v118q36 5 56.5 34.5t20.5 68.5q0 36 -22 65.5t-55 36.5v115q0 22 15 36.5t36 14.5h727q21 0 36 -14.5t15 -36.5v-118q-32 -7 -53 -35.5t-21 -63.5zM614 406q10 0 18 8
t8 18t-8 18t-18 8h-67l58 57q7 7 7 17.5t-7 18t-17.5 7.5t-17.5 -8l-58 -57l-58 57q-7 8 -17.5 8t-17.5 -7.5t-7 -18t7 -17.5l58 -57h-64q-10 0 -18 -8t-8 -18t8 -18t18 -8h80v-51h-80q-10 0 -18 -8t-8 -17.5t8 -17.5t18 -8h80v-51q0 -10 8 -18t17.5 -8t17.5 8t8 18v51h77
q9 0 17 8t8 17.5t-8 17.5t-17 8h-77v51h70z" />
    <glyph glyph-name="ziyuan1" unicode="&#xe61a;" 
d="M507 319q-18 0 -32 10l-452 242l-8 6q-15 15 -15 36.5t15 36.5q4 4 10 6l460 229q14 11 32 11v0q17 0 31 -10l451 -212q6 -2 10 -6q15 -15 15 -36v-1q0 -21 -16 -36q-3 -3 -7 -6l-462 -259q-14 -11 -32 -11v0zM93 613l413 -222l425 239l-414 193zM503 170v0q-17 0 -31 11
l-452 242q-13 7 -17 20.5t3 26t21 17t27 -2.5l449 -241l460 258q13 7 27 3t21 -16.5t3.5 -26t-16.5 -20.5l-462 -260q-14 -11 -32 -11h-1zM503 21v0q-17 0 -31 11l-452 242q-8 4 -13 13t-5 17q0 9 4 17q4 7 13 12.5t18 5.5t17 -4l449 -241l460 258q13 7 27 3t21 -16.5
t3.5 -26t-16.5 -20.5l-462 -260q-14 -11 -32 -11h-1zM503 -128v0q-17 0 -31 11l-452 242q-8 4 -13 13t-5 17q0 9 4 17q4 7 13 12.5t18 5.5t17 -4l449 -241l460 258q13 7 27 3t21 -16.5t3.5 -26t-16.5 -20.5l-462 -260q-14 -11 -32 -11h-1z" />
    <glyph glyph-name="sousuo_sousuo" unicode="&#xe60e;" 
d="M1011 -55l-181 181q45 54 77 142t32 158v0q0 95 -37.5 182t-100.5 149.5t-149.5 100t-182 37.5t-182.5 -37.5t-150 -100t-100 -149.5t-37 -182t37 -182t100 -149.5t150 -100t182 -37.5q170 0 301 109l181 -181q13 -13 30.5 -13t30 12.5t12.5 30t-13 30.5zM469 43
q-104 0 -192.5 51t-140 139.5t-51.5 192.5t51.5 192.5t140 139.5t192.5 51t192.5 -51t140 -139.5t51.5 -192.5t-51.5 -192.5t-140 -139.5t-192.5 -51z" />
    <glyph glyph-name="yajin" unicode="&#xe788;" 
d="M971 732h-918q-17 0 -29 -12t-12 -29v-586q0 -16 12 -28t29 -12h918q17 0 29 12t12 28v586q0 17 -12 29t-29 12zM955 110h-895v301h895v-301zM955 462h-895v66h895v-66zM955 579h-895v106h895v-106zM655 262h221v-49h-221v49z" />
  </font>
</defs>
</svg>
